# xmcd
#
# Track frame offsets:
#	150
#	15137
#	28739
#	41408
#	55994
#	67431
#	79623
#	93183
#	107292
#	120134
#	133696
#	146830
#	159142
#	173084
#	188232
#	201269
#	214153
#	228280
#	257724
#	273053
#	285377
#	307080
#	325442
#	340357
#
# Disc length: 4735 seconds
#
# Revision: 0
# Processed by: cddbd v1.5.2PL0 Copyright (c) Steve Scherf et al.
# Submitted via: EasyCDDAExtractor 10.0.3.1
#
DISCID=4c127d18
DTITLE=The Four Tops - Greatest Hits
DYEAR=2004
DGENRE=R&B
TTITLE0=Reach Out (I'll Be There)
TTITLE1=Baby I Need Your Loving
TTITLE2=I Can't Help Myself (Sugar Pie, Honey Bunch)
TTITLE3=Ain't No Woman (Like The One I've Got)
TTITLE4=It's All In The Game
TTITLE5=Same Old Song
TTITLE6=Just Seven Numbers (Can Straighten Out My Life)
TTITLE7=Bernadette
TTITLE8=Shake Me, Wake Me (When It's Over)
TTITLE9=You Keep Running Away
TTITLE10=Something About You
TTITLE11=Walk Away Renee
TTITLE12=Keeper Of The Castle
TTITLE13=Sweet Understanding Love
TTITLE14=If I Were A Carpenter
TTITLE15=Ask The Lonely
TTITLE16=Standing In The Shadows Of Love
TTITLE17=MacArthur Park
TTITLE18=Still Water (Love)
TTITLE19=Seven Rooms Of Gloom
TTITLE20=Indestructible
TTITLE21=Loco In Acapulco
TTITLE22=When She Was My Girl
TTITLE23=Are You Man Enough (From ' Shaft In Africa')
EXTD=
EXTT0=
EXTT1=
EXTT2=
EXTT3=
EXTT4=
EXTT5=
EXTT6=
EXTT7=
EXTT8=
EXTT9=
EXTT10=
EXTT11=
EXTT12=
EXTT13=
EXTT14=
EXTT15=
EXTT16=
EXTT17=
EXTT18=
EXTT19=
EXTT20=
EXTT21=
EXTT22=
EXTT23=
PLAYORDER=
